<mxfile host="65bd71144e">
    <diagram id="S3U5kxDvKLirV9Vm2tow" name="Page-1">
        <mxGraphModel dx="-974" dy="2746" grid="1" gridSize="10" guides="1" tooltips="1" connect="1" arrows="1" fold="1" page="1" pageScale="1" pageWidth="1100" pageHeight="850" math="0" shadow="0">
            <root>
                <mxCell id="0"/>
                <mxCell id="1" parent="0"/>
                <mxCell id="ayUxG8s4VlRXzF5ZSCcd-15" value="C0" style="whiteSpace=wrap;html=1;aspect=fixed;fillColor=#d5e8d4;strokeColor=#000000;strokeWidth=3;fontSize=50;fontStyle=1" parent="1" vertex="1">
                    <mxGeometry x="3839.54" y="-578.6899999999999" width="140" height="140" as="geometry"/>
                </mxCell>
                <mxCell id="ayUxG8s4VlRXzF5ZSCcd-16" value="" style="rounded=0;whiteSpace=wrap;html=1;fontSize=50;fontColor=#000000;strokeColor=#000000;strokeWidth=6;fillColor=#000000;" parent="1" vertex="1">
                    <mxGeometry x="3894.54" y="-439" width="30" height="11" as="geometry"/>
                </mxCell>
                <mxCell id="ayUxG8s4VlRXzF5ZSCcd-17" style="edgeStyle=orthogonalEdgeStyle;rounded=0;orthogonalLoop=1;jettySize=auto;html=1;entryX=0.25;entryY=0;entryDx=0;entryDy=0;" parent="1" source="ayUxG8s4VlRXzF5ZSCcd-18" target="ayUxG8s4VlRXzF5ZSCcd-16" edge="1">
                    <mxGeometry relative="1" as="geometry">
                        <Array as="points">
                            <mxPoint x="3865.54" y="-469"/>
                            <mxPoint x="3902.54" y="-469"/>
                            <mxPoint x="3902.54" y="-439"/>
                        </Array>
                        <mxPoint x="3903.4749999999995" y="-515.7880000000004" as="targetPoint"/>
                    </mxGeometry>
                </mxCell>
                <mxCell id="ayUxG8s4VlRXzF5ZSCcd-18" value="RAG" style="ellipse;whiteSpace=wrap;html=1;aspect=fixed;sketch=0;fillColor=#d5e8d4;strokeColor=#82b366;" parent="1" vertex="1">
                    <mxGeometry x="3850.04" y="-551" width="30" height="30" as="geometry"/>
                </mxCell>
                <mxCell id="ayUxG8s4VlRXzF5ZSCcd-19" value="" style="endArrow=none;dashed=1;html=1;dashPattern=1 3;strokeWidth=1;exitX=0.5;exitY=0;exitDx=0;exitDy=0;jumpSize=0;" parent="1" source="ayUxG8s4VlRXzF5ZSCcd-18" edge="1">
                    <mxGeometry width="50" height="50" relative="1" as="geometry">
                        <mxPoint x="3950.04" y="-500" as="sourcePoint"/>
                        <mxPoint x="3830.04" y="-590" as="targetPoint"/>
                    </mxGeometry>
                </mxCell>
                <mxCell id="ayUxG8s4VlRXzF5ZSCcd-20" value="" style="endArrow=none;dashed=1;html=1;dashPattern=1 3;strokeWidth=1;exitX=0.5;exitY=0;exitDx=0;exitDy=0;jumpSize=0;" parent="1" source="ayUxG8s4VlRXzF5ZSCcd-18" edge="1">
                    <mxGeometry width="50" height="50" relative="1" as="geometry">
                        <mxPoint x="3875.04" y="-541" as="sourcePoint"/>
                        <mxPoint x="3900.04" y="-590" as="targetPoint"/>
                    </mxGeometry>
                </mxCell>
                <mxCell id="ayUxG8s4VlRXzF5ZSCcd-21" value="&lt;br style=&quot;font-size: 17px&quot;&gt;STREAM_2D:&lt;br style=&quot;font-size: 17px&quot;&gt;&#9;&lt;blockquote style=&quot;margin: 0px 0px 0px 40px ; border: none ; padding: 0px ; font-size: 17px&quot;&gt;&lt;font color=&quot;#0000ff&quot; style=&quot;font-size: 17px&quot;&gt;START_IDX: 0&lt;br style=&quot;font-size: 17px&quot;&gt;STATE: GENERATE&lt;br style=&quot;font-size: 17px&quot;&gt;X_MODIFY: +1&lt;br style=&quot;font-size: 17px&quot;&gt;X_COUNT: X&lt;/font&gt;&lt;/blockquote&gt;&lt;blockquote style=&quot;margin: 0px 0px 0px 40px ; border: none ; padding: 0px ; font-size: 17px&quot;&gt;&lt;font color=&quot;#0000ff&quot; style=&quot;font-size: 17px&quot;&gt;Y_MODIFY: +(X+1)&lt;/font&gt;&lt;/blockquote&gt;&lt;blockquote style=&quot;margin: 0px 0px 0px 40px ; border: none ; padding: 0px ; font-size: 17px&quot;&gt;&lt;font color=&quot;#0000ff&quot; style=&quot;font-size: 17px&quot;&gt;Y_COUNT: Y/2&lt;/font&gt;&lt;/blockquote&gt;&lt;font color=&quot;#0000ff&quot; style=&quot;font-size: 17px&quot;&gt;&lt;span style=&quot;font-size: 17px&quot;&gt;&#9;&lt;/span&gt;&lt;br style=&quot;font-size: 17px&quot;&gt;&lt;/font&gt;&lt;span style=&quot;font-size: 17px&quot;&gt;&#9;&lt;/span&gt;" style="text;html=1;strokeColor=default;fillColor=none;spacing=5;spacingTop=-20;whiteSpace=wrap;overflow=hidden;rounded=0;sketch=0;fontSize=17;" parent="1" vertex="1">
                    <mxGeometry x="3787" y="-760" width="222.54" height="160" as="geometry"/>
                </mxCell>
                <mxCell id="ayUxG8s4VlRXzF5ZSCcd-30" value="t=1" style="text;html=1;align=center;verticalAlign=middle;resizable=0;points=[];autosize=1;strokeColor=none;fillColor=none;fontSize=12;horizontal=0;fontStyle=1" parent="1" vertex="1">
                    <mxGeometry x="3757" y="-362.37" width="30" height="20" as="geometry"/>
                </mxCell>
                <mxCell id="ayUxG8s4VlRXzF5ZSCcd-31" value="t=2" style="text;html=1;align=center;verticalAlign=middle;resizable=0;points=[];autosize=1;strokeColor=none;fillColor=none;fontSize=12;horizontal=0;fontStyle=1" parent="1" vertex="1">
                    <mxGeometry x="3787" y="-362.37" width="30" height="20" as="geometry"/>
                </mxCell>
                <mxCell id="ayUxG8s4VlRXzF5ZSCcd-32" value="t=4" style="text;html=1;align=center;verticalAlign=middle;resizable=0;points=[];autosize=1;strokeColor=none;fillColor=none;fontSize=12;horizontal=0;fontStyle=1" parent="1" vertex="1">
                    <mxGeometry x="3843" y="-362.3699999999999" width="30" height="20" as="geometry"/>
                </mxCell>
                <mxCell id="ayUxG8s4VlRXzF5ZSCcd-33" value="t=6" style="text;html=1;align=center;verticalAlign=middle;resizable=0;points=[];autosize=1;strokeColor=none;fillColor=none;fontSize=12;horizontal=0;fontStyle=1" parent="1" vertex="1">
                    <mxGeometry x="3890" y="-362.3699999999999" width="30" height="20" as="geometry"/>
                </mxCell>
                <mxCell id="ayUxG8s4VlRXzF5ZSCcd-34" value="t=3" style="text;html=1;align=center;verticalAlign=middle;resizable=0;points=[];autosize=1;strokeColor=none;fillColor=none;fontSize=12;horizontal=0;fontStyle=1" parent="1" vertex="1">
                    <mxGeometry x="3817" y="-362.3699999999999" width="30" height="20" as="geometry"/>
                </mxCell>
                <mxCell id="ayUxG8s4VlRXzF5ZSCcd-35" value="t=5" style="text;html=1;align=center;verticalAlign=middle;resizable=0;points=[];autosize=1;strokeColor=none;fillColor=none;fontSize=12;horizontal=0;fontStyle=1" parent="1" vertex="1">
                    <mxGeometry x="3867" y="-362.3699999999999" width="30" height="20" as="geometry"/>
                </mxCell>
                <mxCell id="ayUxG8s4VlRXzF5ZSCcd-36" value="t=7" style="text;html=1;align=center;verticalAlign=middle;resizable=0;points=[];autosize=1;strokeColor=none;fillColor=none;fontSize=12;horizontal=0;fontStyle=1" parent="1" vertex="1">
                    <mxGeometry x="3917" y="-362.3699999999999" width="30" height="20" as="geometry"/>
                </mxCell>
                <mxCell id="ayUxG8s4VlRXzF5ZSCcd-37" value="t=0" style="text;html=1;align=center;verticalAlign=middle;resizable=0;points=[];autosize=1;strokeColor=none;fillColor=none;fontSize=12;horizontal=0;fontStyle=1" parent="1" vertex="1">
                    <mxGeometry x="3727" y="-352.72000000000014" width="30" height="20" as="geometry"/>
                </mxCell>
                <mxCell id="ayUxG8s4VlRXzF5ZSCcd-38" value="t=8" style="text;html=1;align=center;verticalAlign=middle;resizable=0;points=[];autosize=1;strokeColor=none;fillColor=none;fontSize=12;horizontal=0;fontStyle=1" parent="1" vertex="1">
                    <mxGeometry x="3947" y="-362.3699999999999" width="30" height="20" as="geometry"/>
                </mxCell>
                <mxCell id="ayUxG8s4VlRXzF5ZSCcd-39" value="t=9" style="text;html=1;align=center;verticalAlign=middle;resizable=0;points=[];autosize=1;strokeColor=none;fillColor=none;fontSize=12;horizontal=0;fontStyle=1" parent="1" vertex="1">
                    <mxGeometry x="3977" y="-362.3699999999999" width="30" height="20" as="geometry"/>
                </mxCell>
                <mxCell id="ayUxG8s4VlRXzF5ZSCcd-40" value="t=10" style="text;html=1;align=center;verticalAlign=middle;resizable=0;points=[];autosize=1;strokeColor=none;fillColor=none;fontSize=12;horizontal=0;fontStyle=1" parent="1" vertex="1">
                    <mxGeometry x="4007" y="-368.9699999999999" width="30" height="30" as="geometry"/>
                </mxCell>
                <mxCell id="ayUxG8s4VlRXzF5ZSCcd-41" value="t=11" style="text;html=1;align=center;verticalAlign=middle;resizable=0;points=[];autosize=1;strokeColor=none;fillColor=none;fontSize=12;horizontal=0;fontStyle=1" parent="1" vertex="1">
                    <mxGeometry x="4037" y="-369.28999999999985" width="30" height="30" as="geometry"/>
                </mxCell>
                <mxCell id="ayUxG8s4VlRXzF5ZSCcd-42" value="t=12" style="text;html=1;align=center;verticalAlign=middle;resizable=0;points=[];autosize=1;strokeColor=none;fillColor=none;fontSize=12;horizontal=0;fontStyle=1" parent="1" vertex="1">
                    <mxGeometry x="3716" y="-237.18999999999997" width="30" height="30" as="geometry"/>
                </mxCell>
                <mxCell id="ayUxG8s4VlRXzF5ZSCcd-72" value="" style="group;fontStyle=1;fontSize=15;" parent="1" vertex="1" connectable="0">
                    <mxGeometry x="3757" y="-325.28999999999996" width="320" height="186" as="geometry"/>
                </mxCell>
                <mxCell id="ayUxG8s4VlRXzF5ZSCcd-73" value="0" style="rounded=0;whiteSpace=wrap;html=1;fontSize=15;strokeWidth=2;fontStyle=1;fillColor=#d5e8d4;strokeColor=#000000;" parent="ayUxG8s4VlRXzF5ZSCcd-72" vertex="1">
                    <mxGeometry width="26.666666666666664" height="35.05135211533022" as="geometry"/>
                </mxCell>
                <mxCell id="ayUxG8s4VlRXzF5ZSCcd-74" value="1" style="rounded=0;whiteSpace=wrap;html=1;fontSize=15;strokeWidth=2;fontStyle=1;fillColor=#d5e8d4;strokeColor=#000000;" parent="ayUxG8s4VlRXzF5ZSCcd-72" vertex="1">
                    <mxGeometry x="26.666666666666664" width="26.666666666666664" height="35.05135211533022" as="geometry"/>
                </mxCell>
                <mxCell id="ayUxG8s4VlRXzF5ZSCcd-75" value="2" style="rounded=0;whiteSpace=wrap;html=1;fontSize=15;strokeWidth=2;fontStyle=1;" parent="ayUxG8s4VlRXzF5ZSCcd-72" vertex="1">
                    <mxGeometry x="26.666666666666664" y="35.05135211533022" width="26.666666666666664" height="35.05135211533022" as="geometry"/>
                </mxCell>
                <mxCell id="ayUxG8s4VlRXzF5ZSCcd-76" value="3" style="rounded=0;whiteSpace=wrap;html=1;fontSize=15;strokeWidth=2;fontStyle=1;fillColor=#d5e8d4;strokeColor=#000000;" parent="ayUxG8s4VlRXzF5ZSCcd-72" vertex="1">
                    <mxGeometry x="26.666666666666664" y="70.10270423066044" width="26.666666666666664" height="35.05135211533022" as="geometry"/>
                </mxCell>
                <mxCell id="ayUxG8s4VlRXzF5ZSCcd-77" value="5" style="rounded=0;whiteSpace=wrap;html=1;fontSize=15;strokeWidth=2;fontStyle=1;fillColor=#d5e8d4;strokeColor=#000000;" parent="ayUxG8s4VlRXzF5ZSCcd-72" vertex="1">
                    <mxGeometry x="53.33333333333333" width="26.666666666666664" height="35.05135211533022" as="geometry"/>
                </mxCell>
                <mxCell id="ayUxG8s4VlRXzF5ZSCcd-78" value="6" style="rounded=0;whiteSpace=wrap;html=1;fontSize=15;strokeWidth=2;fontStyle=1;fillColor=#d5e8d4;strokeColor=#000000;" parent="ayUxG8s4VlRXzF5ZSCcd-72" vertex="1">
                    <mxGeometry x="80" width="26.666666666666664" height="35.05135211533022" as="geometry"/>
                </mxCell>
                <mxCell id="ayUxG8s4VlRXzF5ZSCcd-79" value="7" style="rounded=0;whiteSpace=wrap;html=1;fontSize=15;strokeWidth=2;fontStyle=1;" parent="ayUxG8s4VlRXzF5ZSCcd-72" vertex="1">
                    <mxGeometry x="80" y="35.05135211533022" width="26.666666666666664" height="35.05135211533022" as="geometry"/>
                </mxCell>
                <mxCell id="ayUxG8s4VlRXzF5ZSCcd-80" value="8" style="rounded=0;whiteSpace=wrap;html=1;fontSize=15;strokeWidth=2;fontStyle=1;fillColor=#d5e8d4;strokeColor=#000000;" parent="ayUxG8s4VlRXzF5ZSCcd-72" vertex="1">
                    <mxGeometry x="80" y="70.10270423066044" width="26.666666666666664" height="35.05135211533022" as="geometry"/>
                </mxCell>
                <mxCell id="ayUxG8s4VlRXzF5ZSCcd-81" value="1" style="rounded=0;whiteSpace=wrap;html=1;fontSize=15;strokeWidth=2;fontStyle=1;" parent="ayUxG8s4VlRXzF5ZSCcd-72" vertex="1">
                    <mxGeometry y="35.05135211533022" width="26.666666666666664" height="35.05135211533022" as="geometry"/>
                </mxCell>
                <mxCell id="ayUxG8s4VlRXzF5ZSCcd-82" value="6" style="rounded=0;whiteSpace=wrap;html=1;fontSize=15;strokeWidth=2;fontStyle=1;" parent="ayUxG8s4VlRXzF5ZSCcd-72" vertex="1">
                    <mxGeometry x="53.33333333333333" y="35.05135211533022" width="26.666666666666664" height="35.05135211533022" as="geometry"/>
                </mxCell>
                <mxCell id="ayUxG8s4VlRXzF5ZSCcd-83" value="2" style="rounded=0;whiteSpace=wrap;html=1;fontSize=15;strokeWidth=2;fontStyle=1;fillColor=#d5e8d4;strokeColor=#000000;" parent="ayUxG8s4VlRXzF5ZSCcd-72" vertex="1">
                    <mxGeometry y="70.10270423066044" width="26.666666666666664" height="35.05135211533022" as="geometry"/>
                </mxCell>
                <mxCell id="ayUxG8s4VlRXzF5ZSCcd-84" value="7" style="rounded=0;whiteSpace=wrap;html=1;fontSize=15;strokeWidth=2;fontStyle=1;fillColor=#d5e8d4;strokeColor=#000000;" parent="ayUxG8s4VlRXzF5ZSCcd-72" vertex="1">
                    <mxGeometry x="53.33333333333333" y="70.10270423066044" width="26.666666666666664" height="35.05135211533022" as="geometry"/>
                </mxCell>
                <mxCell id="ayUxG8s4VlRXzF5ZSCcd-85" value="0" style="rounded=0;whiteSpace=wrap;html=1;fontSize=15;strokeWidth=2;fontStyle=1;fillColor=#d5e8d4;strokeColor=#000000;" parent="ayUxG8s4VlRXzF5ZSCcd-72" vertex="1">
                    <mxGeometry x="106.66666666666666" width="26.666666666666664" height="35.05135211533022" as="geometry"/>
                </mxCell>
                <mxCell id="ayUxG8s4VlRXzF5ZSCcd-86" value="1" style="rounded=0;whiteSpace=wrap;html=1;fontSize=15;strokeWidth=2;fontStyle=1;fillColor=#d5e8d4;strokeColor=#000000;" parent="ayUxG8s4VlRXzF5ZSCcd-72" vertex="1">
                    <mxGeometry x="133.33333333333331" width="26.666666666666664" height="35.05135211533022" as="geometry"/>
                </mxCell>
                <mxCell id="ayUxG8s4VlRXzF5ZSCcd-87" value="2" style="rounded=0;whiteSpace=wrap;html=1;fontSize=15;strokeWidth=2;fontStyle=1;" parent="ayUxG8s4VlRXzF5ZSCcd-72" vertex="1">
                    <mxGeometry x="133.33333333333331" y="35.05135211533022" width="26.666666666666664" height="35.05135211533022" as="geometry"/>
                </mxCell>
                <mxCell id="ayUxG8s4VlRXzF5ZSCcd-88" value="3" style="rounded=0;whiteSpace=wrap;html=1;fontSize=15;strokeWidth=2;fontStyle=1;fillColor=#d5e8d4;strokeColor=#000000;" parent="ayUxG8s4VlRXzF5ZSCcd-72" vertex="1">
                    <mxGeometry x="133.33333333333331" y="70.10270423066044" width="26.666666666666664" height="35.05135211533022" as="geometry"/>
                </mxCell>
                <mxCell id="ayUxG8s4VlRXzF5ZSCcd-89" value="5" style="rounded=0;whiteSpace=wrap;html=1;fontSize=15;strokeWidth=2;fontStyle=1;fillColor=#d5e8d4;strokeColor=#000000;" parent="ayUxG8s4VlRXzF5ZSCcd-72" vertex="1">
                    <mxGeometry x="160" width="26.666666666666664" height="35.05135211533022" as="geometry"/>
                </mxCell>
                <mxCell id="ayUxG8s4VlRXzF5ZSCcd-90" value="6" style="rounded=0;whiteSpace=wrap;html=1;fontSize=15;strokeWidth=2;fontStyle=1;fillColor=#d5e8d4;strokeColor=#000000;" parent="ayUxG8s4VlRXzF5ZSCcd-72" vertex="1">
                    <mxGeometry x="186.66666666666666" width="26.666666666666664" height="35.05135211533022" as="geometry"/>
                </mxCell>
                <mxCell id="ayUxG8s4VlRXzF5ZSCcd-91" value="7" style="rounded=0;whiteSpace=wrap;html=1;fontSize=15;strokeWidth=2;fontStyle=1;" parent="ayUxG8s4VlRXzF5ZSCcd-72" vertex="1">
                    <mxGeometry x="186.66666666666666" y="35.05135211533022" width="26.666666666666664" height="35.05135211533022" as="geometry"/>
                </mxCell>
                <mxCell id="ayUxG8s4VlRXzF5ZSCcd-92" value="8" style="rounded=0;whiteSpace=wrap;html=1;fontSize=15;strokeWidth=2;fontStyle=1;fillColor=#d5e8d4;strokeColor=#000000;" parent="ayUxG8s4VlRXzF5ZSCcd-72" vertex="1">
                    <mxGeometry x="186.66666666666666" y="70.10270423066044" width="26.666666666666664" height="35.05135211533022" as="geometry"/>
                </mxCell>
                <mxCell id="ayUxG8s4VlRXzF5ZSCcd-93" value="1" style="rounded=0;whiteSpace=wrap;html=1;fontSize=15;strokeWidth=2;fontStyle=1;" parent="ayUxG8s4VlRXzF5ZSCcd-72" vertex="1">
                    <mxGeometry x="106.66666666666666" y="35.05135211533022" width="26.666666666666664" height="35.05135211533022" as="geometry"/>
                </mxCell>
                <mxCell id="ayUxG8s4VlRXzF5ZSCcd-94" value="6" style="rounded=0;whiteSpace=wrap;html=1;fontSize=15;strokeWidth=2;fontStyle=1;" parent="ayUxG8s4VlRXzF5ZSCcd-72" vertex="1">
                    <mxGeometry x="160" y="35.05135211533022" width="26.666666666666664" height="35.05135211533022" as="geometry"/>
                </mxCell>
                <mxCell id="ayUxG8s4VlRXzF5ZSCcd-95" value="2" style="rounded=0;whiteSpace=wrap;html=1;fontSize=15;strokeWidth=2;fontStyle=1;fillColor=#d5e8d4;strokeColor=#000000;" parent="ayUxG8s4VlRXzF5ZSCcd-72" vertex="1">
                    <mxGeometry x="106.66666666666666" y="70.10270423066044" width="26.666666666666664" height="35.05135211533022" as="geometry"/>
                </mxCell>
                <mxCell id="ayUxG8s4VlRXzF5ZSCcd-96" value="7" style="rounded=0;whiteSpace=wrap;html=1;fontSize=15;strokeWidth=2;fontStyle=1;fillColor=#d5e8d4;strokeColor=#000000;" parent="ayUxG8s4VlRXzF5ZSCcd-72" vertex="1">
                    <mxGeometry x="160" y="70.10270423066044" width="26.666666666666664" height="35.05135211533022" as="geometry"/>
                </mxCell>
                <mxCell id="ayUxG8s4VlRXzF5ZSCcd-97" value="0" style="rounded=0;whiteSpace=wrap;html=1;fontSize=15;strokeWidth=2;fontStyle=1;fillColor=#d5e8d4;strokeColor=#000000;" parent="ayUxG8s4VlRXzF5ZSCcd-72" vertex="1">
                    <mxGeometry x="213.33333333333331" width="26.666666666666664" height="35.05135211533022" as="geometry"/>
                </mxCell>
                <mxCell id="ayUxG8s4VlRXzF5ZSCcd-98" value="1" style="rounded=0;whiteSpace=wrap;html=1;fontSize=15;strokeWidth=2;fontStyle=1;fillColor=#d5e8d4;strokeColor=#000000;" parent="ayUxG8s4VlRXzF5ZSCcd-72" vertex="1">
                    <mxGeometry x="240" width="26.666666666666664" height="35.05135211533022" as="geometry"/>
                </mxCell>
                <mxCell id="ayUxG8s4VlRXzF5ZSCcd-99" value="2" style="rounded=0;whiteSpace=wrap;html=1;fontSize=15;strokeWidth=2;fontStyle=1;" parent="ayUxG8s4VlRXzF5ZSCcd-72" vertex="1">
                    <mxGeometry x="240" y="35.05135211533022" width="26.666666666666664" height="35.05135211533022" as="geometry"/>
                </mxCell>
                <mxCell id="ayUxG8s4VlRXzF5ZSCcd-100" value="3" style="rounded=0;whiteSpace=wrap;html=1;fontSize=15;strokeWidth=2;fontStyle=1;fillColor=#d5e8d4;strokeColor=#000000;" parent="ayUxG8s4VlRXzF5ZSCcd-72" vertex="1">
                    <mxGeometry x="240" y="70.10270423066044" width="26.666666666666664" height="35.05135211533022" as="geometry"/>
                </mxCell>
                <mxCell id="ayUxG8s4VlRXzF5ZSCcd-101" value="5" style="rounded=0;whiteSpace=wrap;html=1;fontSize=15;strokeWidth=2;fontStyle=1;fillColor=#d5e8d4;strokeColor=#000000;" parent="ayUxG8s4VlRXzF5ZSCcd-72" vertex="1">
                    <mxGeometry x="266.66666666666663" width="26.666666666666664" height="35.05135211533022" as="geometry"/>
                </mxCell>
                <mxCell id="ayUxG8s4VlRXzF5ZSCcd-102" value="6" style="rounded=0;whiteSpace=wrap;html=1;fontSize=15;strokeWidth=2;fontStyle=1;fillColor=#d5e8d4;strokeColor=#000000;" parent="ayUxG8s4VlRXzF5ZSCcd-72" vertex="1">
                    <mxGeometry x="293.3333333333333" width="26.666666666666664" height="35.05135211533022" as="geometry"/>
                </mxCell>
                <mxCell id="ayUxG8s4VlRXzF5ZSCcd-103" value="7" style="rounded=0;whiteSpace=wrap;html=1;fontSize=15;strokeWidth=2;fontStyle=1;" parent="ayUxG8s4VlRXzF5ZSCcd-72" vertex="1">
                    <mxGeometry x="293.3333333333333" y="35.05135211533022" width="26.666666666666664" height="35.05135211533022" as="geometry"/>
                </mxCell>
                <mxCell id="ayUxG8s4VlRXzF5ZSCcd-104" value="8" style="rounded=0;whiteSpace=wrap;html=1;fontSize=15;strokeWidth=2;fontStyle=1;fillColor=#d5e8d4;strokeColor=#000000;" parent="ayUxG8s4VlRXzF5ZSCcd-72" vertex="1">
                    <mxGeometry x="293.3333333333333" y="70.10270423066044" width="26.666666666666664" height="35.05135211533022" as="geometry"/>
                </mxCell>
                <mxCell id="ayUxG8s4VlRXzF5ZSCcd-105" value="1" style="rounded=0;whiteSpace=wrap;html=1;fontSize=15;strokeWidth=2;fontStyle=1;" parent="ayUxG8s4VlRXzF5ZSCcd-72" vertex="1">
                    <mxGeometry x="213.33333333333331" y="35.05135211533022" width="26.666666666666664" height="35.05135211533022" as="geometry"/>
                </mxCell>
                <mxCell id="ayUxG8s4VlRXzF5ZSCcd-106" value="6" style="rounded=0;whiteSpace=wrap;html=1;fontSize=15;strokeWidth=2;fontStyle=1;" parent="ayUxG8s4VlRXzF5ZSCcd-72" vertex="1">
                    <mxGeometry x="266.66666666666663" y="35.05135211533022" width="26.666666666666664" height="35.05135211533022" as="geometry"/>
                </mxCell>
                <mxCell id="ayUxG8s4VlRXzF5ZSCcd-107" value="2" style="rounded=0;whiteSpace=wrap;html=1;fontSize=15;strokeWidth=2;fontStyle=1;fillColor=#d5e8d4;strokeColor=#000000;" parent="ayUxG8s4VlRXzF5ZSCcd-72" vertex="1">
                    <mxGeometry x="213.33333333333331" y="70.10270423066044" width="26.666666666666664" height="35.05135211533022" as="geometry"/>
                </mxCell>
                <mxCell id="ayUxG8s4VlRXzF5ZSCcd-108" value="7" style="rounded=0;whiteSpace=wrap;html=1;fontSize=15;strokeWidth=2;fontStyle=1;fillColor=#d5e8d4;strokeColor=#000000;" parent="ayUxG8s4VlRXzF5ZSCcd-72" vertex="1">
                    <mxGeometry x="266.66666666666663" y="70.10270423066044" width="26.666666666666664" height="35.05135211533022" as="geometry"/>
                </mxCell>
                <mxCell id="ayUxG8s4VlRXzF5ZSCcd-109" value="2" style="rounded=0;whiteSpace=wrap;html=1;fontSize=15;strokeWidth=2;fontStyle=1;" parent="ayUxG8s4VlRXzF5ZSCcd-72" vertex="1">
                    <mxGeometry x="26.666666666666664" y="100.5623292188826" width="26.666666666666664" height="35.05135211533022" as="geometry"/>
                </mxCell>
                <mxCell id="ayUxG8s4VlRXzF5ZSCcd-110" value="7" style="rounded=0;whiteSpace=wrap;html=1;fontSize=15;strokeWidth=2;fontStyle=1;" parent="ayUxG8s4VlRXzF5ZSCcd-72" vertex="1">
                    <mxGeometry x="80" y="100.5623292188826" width="26.666666666666664" height="35.05135211533022" as="geometry"/>
                </mxCell>
                <mxCell id="ayUxG8s4VlRXzF5ZSCcd-111" value="1" style="rounded=0;whiteSpace=wrap;html=1;fontSize=15;strokeWidth=2;fontStyle=1;" parent="ayUxG8s4VlRXzF5ZSCcd-72" vertex="1">
                    <mxGeometry y="100.5623292188826" width="26.666666666666664" height="35.05135211533022" as="geometry"/>
                </mxCell>
                <mxCell id="ayUxG8s4VlRXzF5ZSCcd-112" value="6" style="rounded=0;whiteSpace=wrap;html=1;fontSize=15;strokeWidth=2;fontStyle=1;" parent="ayUxG8s4VlRXzF5ZSCcd-72" vertex="1">
                    <mxGeometry x="53.33333333333333" y="100.5623292188826" width="26.666666666666664" height="35.05135211533022" as="geometry"/>
                </mxCell>
                <mxCell id="ayUxG8s4VlRXzF5ZSCcd-113" value="2" style="rounded=0;whiteSpace=wrap;html=1;fontSize=15;strokeWidth=2;fontStyle=1;" parent="ayUxG8s4VlRXzF5ZSCcd-72" vertex="1">
                    <mxGeometry x="133.33333333333331" y="100.5623292188826" width="26.666666666666664" height="35.05135211533022" as="geometry"/>
                </mxCell>
                <mxCell id="ayUxG8s4VlRXzF5ZSCcd-114" value="7" style="rounded=0;whiteSpace=wrap;html=1;fontSize=15;strokeWidth=2;fontStyle=1;" parent="ayUxG8s4VlRXzF5ZSCcd-72" vertex="1">
                    <mxGeometry x="186.66666666666666" y="100.5623292188826" width="26.666666666666664" height="35.05135211533022" as="geometry"/>
                </mxCell>
                <mxCell id="ayUxG8s4VlRXzF5ZSCcd-115" value="1" style="rounded=0;whiteSpace=wrap;html=1;fontSize=15;strokeWidth=2;fontStyle=1;" parent="ayUxG8s4VlRXzF5ZSCcd-72" vertex="1">
                    <mxGeometry x="106.66666666666666" y="100.5623292188826" width="26.666666666666664" height="35.05135211533022" as="geometry"/>
                </mxCell>
                <mxCell id="ayUxG8s4VlRXzF5ZSCcd-116" value="6" style="rounded=0;whiteSpace=wrap;html=1;fontSize=15;strokeWidth=2;fontStyle=1;" parent="ayUxG8s4VlRXzF5ZSCcd-72" vertex="1">
                    <mxGeometry x="160" y="100.5623292188826" width="26.666666666666664" height="35.05135211533022" as="geometry"/>
                </mxCell>
                <mxCell id="ayUxG8s4VlRXzF5ZSCcd-117" value="2" style="rounded=0;whiteSpace=wrap;html=1;fontSize=15;strokeWidth=2;fontStyle=1;" parent="ayUxG8s4VlRXzF5ZSCcd-72" vertex="1">
                    <mxGeometry x="240" y="100.5623292188826" width="26.666666666666664" height="35.05135211533022" as="geometry"/>
                </mxCell>
                <mxCell id="ayUxG8s4VlRXzF5ZSCcd-118" value="7" style="rounded=0;whiteSpace=wrap;html=1;fontSize=15;strokeWidth=2;fontStyle=1;" parent="ayUxG8s4VlRXzF5ZSCcd-72" vertex="1">
                    <mxGeometry x="293.3333333333333" y="100.5623292188826" width="26.666666666666664" height="35.05135211533022" as="geometry"/>
                </mxCell>
                <mxCell id="ayUxG8s4VlRXzF5ZSCcd-119" value="1" style="rounded=0;whiteSpace=wrap;html=1;fontSize=15;strokeWidth=2;fontStyle=1;" parent="ayUxG8s4VlRXzF5ZSCcd-72" vertex="1">
                    <mxGeometry x="213.33333333333331" y="100.5623292188826" width="26.666666666666664" height="35.05135211533022" as="geometry"/>
                </mxCell>
                <mxCell id="ayUxG8s4VlRXzF5ZSCcd-120" value="6" style="rounded=0;whiteSpace=wrap;html=1;fontSize=15;strokeWidth=2;fontStyle=1;" parent="ayUxG8s4VlRXzF5ZSCcd-72" vertex="1">
                    <mxGeometry x="266.66666666666663" y="100.5623292188826" width="26.666666666666664" height="35.05135211533022" as="geometry"/>
                </mxCell>
                <mxCell id="ayUxG8s4VlRXzF5ZSCcd-121" value="" style="endArrow=none;dashed=1;html=1;fontSize=15;endSize=1;strokeWidth=2;curved=1;fontStyle=1" parent="ayUxG8s4VlRXzF5ZSCcd-72" edge="1">
                    <mxGeometry width="50" height="50" relative="1" as="geometry">
                        <mxPoint x="12.666666666666666" y="185.9298972957694" as="sourcePoint"/>
                        <mxPoint x="13.133333333332605" y="135.6136813342127" as="targetPoint"/>
                    </mxGeometry>
                </mxCell>
                <mxCell id="ayUxG8s4VlRXzF5ZSCcd-122" value="" style="endArrow=none;dashed=1;html=1;fontSize=15;endSize=1;strokeWidth=2;curved=1;fontStyle=1" parent="ayUxG8s4VlRXzF5ZSCcd-72" edge="1">
                    <mxGeometry width="50" height="50" relative="1" as="geometry">
                        <mxPoint x="39.773333333333234" y="185.9649486478847" as="sourcePoint"/>
                        <mxPoint x="40.23999999999917" y="135.64873268632812" as="targetPoint"/>
                    </mxGeometry>
                </mxCell>
                <mxCell id="ayUxG8s4VlRXzF5ZSCcd-123" value="" style="endArrow=none;dashed=1;html=1;fontSize=15;endSize=1;strokeWidth=2;curved=1;fontStyle=1" parent="ayUxG8s4VlRXzF5ZSCcd-72" edge="1">
                    <mxGeometry width="50" height="50" relative="1" as="geometry">
                        <mxPoint x="65.75999999999961" y="185.9298972957694" as="sourcePoint"/>
                        <mxPoint x="66.22666666666555" y="135.6136813342128" as="targetPoint"/>
                    </mxGeometry>
                </mxCell>
                <mxCell id="ayUxG8s4VlRXzF5ZSCcd-124" value="" style="endArrow=none;dashed=1;html=1;fontSize=15;endSize=1;strokeWidth=2;curved=1;fontStyle=1" parent="ayUxG8s4VlRXzF5ZSCcd-72" edge="1">
                    <mxGeometry width="50" height="50" relative="1" as="geometry">
                        <mxPoint x="92.86666666666618" y="185.9649486478847" as="sourcePoint"/>
                        <mxPoint x="93.33333333333212" y="135.64873268632812" as="targetPoint"/>
                    </mxGeometry>
                </mxCell>
                <mxCell id="ayUxG8s4VlRXzF5ZSCcd-125" value="" style="endArrow=none;dashed=1;html=1;fontSize=15;endSize=1;strokeWidth=2;curved=1;fontStyle=1" parent="ayUxG8s4VlRXzF5ZSCcd-72" edge="1">
                    <mxGeometry width="50" height="50" relative="1" as="geometry">
                        <mxPoint x="119.33333333333333" y="185.9649486478847" as="sourcePoint"/>
                        <mxPoint x="119.79999999999927" y="135.64873268632812" as="targetPoint"/>
                    </mxGeometry>
                </mxCell>
                <mxCell id="ayUxG8s4VlRXzF5ZSCcd-126" value="" style="endArrow=none;dashed=1;html=1;fontSize=15;endSize=1;strokeWidth=2;curved=1;fontStyle=1" parent="ayUxG8s4VlRXzF5ZSCcd-72" edge="1">
                    <mxGeometry width="50" height="50" relative="1" as="geometry">
                        <mxPoint x="146.43999999999988" y="186" as="sourcePoint"/>
                        <mxPoint x="146.90666666666584" y="135.6837840384434" as="targetPoint"/>
                    </mxGeometry>
                </mxCell>
                <mxCell id="ayUxG8s4VlRXzF5ZSCcd-127" value="" style="endArrow=none;dashed=1;html=1;fontSize=15;endSize=1;strokeWidth=2;curved=1;fontStyle=1" parent="ayUxG8s4VlRXzF5ZSCcd-72" edge="1">
                    <mxGeometry width="50" height="50" relative="1" as="geometry">
                        <mxPoint x="172.42666666666628" y="185.9649486478847" as="sourcePoint"/>
                        <mxPoint x="172.8933333333322" y="135.64873268632812" as="targetPoint"/>
                    </mxGeometry>
                </mxCell>
                <mxCell id="ayUxG8s4VlRXzF5ZSCcd-128" value="" style="endArrow=none;dashed=1;html=1;fontSize=15;endSize=1;strokeWidth=2;curved=1;fontStyle=1" parent="ayUxG8s4VlRXzF5ZSCcd-72" edge="1">
                    <mxGeometry width="50" height="50" relative="1" as="geometry">
                        <mxPoint x="199.53333333333285" y="186" as="sourcePoint"/>
                        <mxPoint x="199.99999999999878" y="135.6837840384434" as="targetPoint"/>
                    </mxGeometry>
                </mxCell>
                <mxCell id="ayUxG8s4VlRXzF5ZSCcd-129" value="" style="endArrow=none;dashed=1;html=1;fontSize=15;endSize=1;strokeWidth=2;curved=1;fontStyle=1" parent="ayUxG8s4VlRXzF5ZSCcd-72" edge="1">
                    <mxGeometry width="50" height="50" relative="1" as="geometry">
                        <mxPoint x="226.66666666666666" y="185.9298972957694" as="sourcePoint"/>
                        <mxPoint x="227.1333333333326" y="135.6136813342128" as="targetPoint"/>
                    </mxGeometry>
                </mxCell>
                <mxCell id="ayUxG8s4VlRXzF5ZSCcd-130" value="" style="endArrow=none;dashed=1;html=1;fontSize=15;endSize=1;strokeWidth=2;curved=1;fontStyle=1" parent="ayUxG8s4VlRXzF5ZSCcd-72" edge="1">
                    <mxGeometry width="50" height="50" relative="1" as="geometry">
                        <mxPoint x="253.77333333333323" y="185.9649486478847" as="sourcePoint"/>
                        <mxPoint x="254.23999999999916" y="135.64873268632812" as="targetPoint"/>
                    </mxGeometry>
                </mxCell>
                <mxCell id="ayUxG8s4VlRXzF5ZSCcd-131" value="" style="endArrow=none;dashed=1;html=1;fontSize=15;endSize=1;strokeWidth=2;curved=1;fontStyle=1" parent="ayUxG8s4VlRXzF5ZSCcd-72" edge="1">
                    <mxGeometry width="50" height="50" relative="1" as="geometry">
                        <mxPoint x="279.7599999999996" y="185.9298972957694" as="sourcePoint"/>
                        <mxPoint x="280.22666666666555" y="135.6136813342128" as="targetPoint"/>
                    </mxGeometry>
                </mxCell>
                <mxCell id="ayUxG8s4VlRXzF5ZSCcd-132" value="" style="endArrow=none;dashed=1;html=1;fontSize=15;endSize=1;strokeWidth=2;curved=1;fontStyle=1" parent="ayUxG8s4VlRXzF5ZSCcd-72" edge="1">
                    <mxGeometry width="50" height="50" relative="1" as="geometry">
                        <mxPoint x="306.86666666666616" y="185.9649486478847" as="sourcePoint"/>
                        <mxPoint x="307.3333333333321" y="135.64873268632812" as="targetPoint"/>
                    </mxGeometry>
                </mxCell>
                <mxCell id="ayUxG8s4VlRXzF5ZSCcd-133" value="" style="endArrow=classic;html=1;fontSize=12;endSize=1;strokeWidth=2;curved=1;exitX=1;exitY=0.5;exitDx=0;exitDy=0;entryX=0;entryY=0.5;entryDx=0;entryDy=0;" parent="ayUxG8s4VlRXzF5ZSCcd-72" source="ayUxG8s4VlRXzF5ZSCcd-102" target="ayUxG8s4VlRXzF5ZSCcd-83" edge="1">
                    <mxGeometry width="50" height="50" relative="1" as="geometry">
                        <mxPoint x="250" y="-42.690000000000055" as="sourcePoint"/>
                        <mxPoint x="-60" y="27.309999999999945" as="targetPoint"/>
                        <Array as="points">
                            <mxPoint x="353" y="18"/>
                            <mxPoint x="343" y="-84"/>
                            <mxPoint x="-37" y="-84"/>
                            <mxPoint x="-57" y="86"/>
                        </Array>
                    </mxGeometry>
                </mxCell>
                <mxCell id="ayUxG8s4VlRXzF5ZSCcd-134" value="" style="group" parent="1" vertex="1" connectable="0">
                    <mxGeometry x="3750" y="-339.28999999999996" width="310" height="14.31" as="geometry"/>
                </mxCell>
                <mxCell id="ayUxG8s4VlRXzF5ZSCcd-135" style="edgeStyle=orthogonalEdgeStyle;curved=1;orthogonalLoop=1;jettySize=auto;html=1;exitX=0.75;exitY=0;exitDx=0;exitDy=0;entryX=0.25;entryY=0;entryDx=0;entryDy=0;fontSize=12;endSize=1;strokeWidth=2;" parent="ayUxG8s4VlRXzF5ZSCcd-134" edge="1">
                    <mxGeometry relative="1" as="geometry">
                        <mxPoint x="51.92700346142001" y="13.85903151421974" as="sourcePoint"/>
                        <mxPoint x="65.50979275292421" y="13.85903151421974" as="targetPoint"/>
                        <Array as="points">
                            <mxPoint x="52.606142925995215"/>
                            <mxPoint x="66.18893221749943"/>
                            <mxPoint x="66.18893221749943" y="14.299000768639518"/>
                        </Array>
                    </mxGeometry>
                </mxCell>
                <mxCell id="ayUxG8s4VlRXzF5ZSCcd-136" style="edgeStyle=orthogonalEdgeStyle;curved=1;orthogonalLoop=1;jettySize=auto;html=1;exitX=0.75;exitY=0;exitDx=0;exitDy=0;entryX=0.25;entryY=0;entryDx=0;entryDy=0;fontSize=12;endSize=1;strokeWidth=2;" parent="ayUxG8s4VlRXzF5ZSCcd-134" edge="1">
                    <mxGeometry relative="1" as="geometry">
                        <mxPoint x="24.082285413836377" y="13.85903151421974" as="sourcePoint"/>
                        <mxPoint x="37.66507470534059" y="13.85903151421974" as="targetPoint"/>
                        <Array as="points">
                            <mxPoint x="24.761424878411585"/>
                            <mxPoint x="38.344214169915794"/>
                            <mxPoint x="38.344214169915794" y="14.299000768639518"/>
                        </Array>
                    </mxGeometry>
                </mxCell>
                <mxCell id="ayUxG8s4VlRXzF5ZSCcd-137" style="edgeStyle=orthogonalEdgeStyle;curved=1;orthogonalLoop=1;jettySize=auto;html=1;exitX=0.75;exitY=0;exitDx=0;exitDy=0;entryX=0.25;entryY=0;entryDx=0;entryDy=0;fontSize=12;endSize=1;strokeWidth=2;" parent="ayUxG8s4VlRXzF5ZSCcd-134" edge="1">
                    <mxGeometry relative="1" as="geometry">
                        <mxPoint x="106.25816062743685" y="13.85903151421974" as="sourcePoint"/>
                        <mxPoint x="119.84094991894108" y="13.85903151421974" as="targetPoint"/>
                        <Array as="points">
                            <mxPoint x="106.93730009201207"/>
                            <mxPoint x="120.52008938351628"/>
                            <mxPoint x="120.52008938351628" y="14.299000768639518"/>
                        </Array>
                    </mxGeometry>
                </mxCell>
                <mxCell id="ayUxG8s4VlRXzF5ZSCcd-138" style="edgeStyle=orthogonalEdgeStyle;curved=1;orthogonalLoop=1;jettySize=auto;html=1;exitX=0.75;exitY=0;exitDx=0;exitDy=0;entryX=0.25;entryY=0;entryDx=0;entryDy=0;fontSize=12;endSize=1;strokeWidth=2;" parent="ayUxG8s4VlRXzF5ZSCcd-134" edge="1">
                    <mxGeometry relative="1" as="geometry">
                        <mxPoint x="78.41344257985322" y="13.85903151421974" as="sourcePoint"/>
                        <mxPoint x="91.99623187135742" y="13.85903151421974" as="targetPoint"/>
                        <Array as="points">
                            <mxPoint x="79.09258204442844"/>
                            <mxPoint x="92.67537133593265"/>
                            <mxPoint x="92.67537133593265" y="14.299000768639518"/>
                        </Array>
                    </mxGeometry>
                </mxCell>
                <mxCell id="ayUxG8s4VlRXzF5ZSCcd-139" style="edgeStyle=orthogonalEdgeStyle;curved=1;orthogonalLoop=1;jettySize=auto;html=1;exitX=0.75;exitY=0;exitDx=0;exitDy=0;entryX=0.25;entryY=0;entryDx=0;entryDy=0;fontSize=12;endSize=1;strokeWidth=2;" parent="ayUxG8s4VlRXzF5ZSCcd-134" edge="1">
                    <mxGeometry relative="1" as="geometry">
                        <mxPoint x="160.5893177934537" y="13.85903151421974" as="sourcePoint"/>
                        <mxPoint x="174.1721070849579" y="13.85903151421974" as="targetPoint"/>
                        <Array as="points">
                            <mxPoint x="161.2684572580289"/>
                            <mxPoint x="174.85124654953313"/>
                            <mxPoint x="174.85124654953313" y="14.299000768639518"/>
                        </Array>
                    </mxGeometry>
                </mxCell>
                <mxCell id="ayUxG8s4VlRXzF5ZSCcd-140" style="edgeStyle=orthogonalEdgeStyle;curved=1;orthogonalLoop=1;jettySize=auto;html=1;exitX=0.75;exitY=0;exitDx=0;exitDy=0;entryX=0.25;entryY=0;entryDx=0;entryDy=0;fontSize=12;endSize=1;strokeWidth=2;" parent="ayUxG8s4VlRXzF5ZSCcd-134" edge="1">
                    <mxGeometry relative="1" as="geometry">
                        <mxPoint x="132.74459974587006" y="13.85903151421974" as="sourcePoint"/>
                        <mxPoint x="146.32738903737427" y="13.85903151421974" as="targetPoint"/>
                        <Array as="points">
                            <mxPoint x="133.42373921044526"/>
                            <mxPoint x="147.0065285019495"/>
                            <mxPoint x="147.0065285019495" y="14.299000768639518"/>
                        </Array>
                    </mxGeometry>
                </mxCell>
                <mxCell id="ayUxG8s4VlRXzF5ZSCcd-141" style="edgeStyle=orthogonalEdgeStyle;curved=1;orthogonalLoop=1;jettySize=auto;html=1;exitX=0.75;exitY=0;exitDx=0;exitDy=0;entryX=0.25;entryY=0;entryDx=0;entryDy=0;fontSize=12;endSize=1;strokeWidth=2;" parent="ayUxG8s4VlRXzF5ZSCcd-134" edge="1">
                    <mxGeometry relative="1" as="geometry">
                        <mxPoint x="214.92047495947054" y="13.85903151421974" as="sourcePoint"/>
                        <mxPoint x="228.50326425097475" y="13.85903151421974" as="targetPoint"/>
                        <Array as="points">
                            <mxPoint x="215.59961442404574"/>
                            <mxPoint x="229.18240371554998"/>
                            <mxPoint x="229.18240371554998" y="14.299000768639518"/>
                        </Array>
                    </mxGeometry>
                </mxCell>
                <mxCell id="ayUxG8s4VlRXzF5ZSCcd-142" style="edgeStyle=orthogonalEdgeStyle;curved=1;orthogonalLoop=1;jettySize=auto;html=1;exitX=0.75;exitY=0;exitDx=0;exitDy=0;entryX=0.25;entryY=0;entryDx=0;entryDy=0;fontSize=12;endSize=1;strokeWidth=2;" parent="ayUxG8s4VlRXzF5ZSCcd-134" edge="1">
                    <mxGeometry relative="1" as="geometry">
                        <mxPoint x="187.0757569118869" y="13.85903151421974" as="sourcePoint"/>
                        <mxPoint x="200.65854620339113" y="13.85903151421974" as="targetPoint"/>
                        <Array as="points">
                            <mxPoint x="187.7548963764621"/>
                            <mxPoint x="201.33768566796635"/>
                            <mxPoint x="201.33768566796635" y="14.299000768639518"/>
                        </Array>
                    </mxGeometry>
                </mxCell>
                <mxCell id="ayUxG8s4VlRXzF5ZSCcd-143" style="edgeStyle=orthogonalEdgeStyle;curved=1;orthogonalLoop=1;jettySize=auto;html=1;exitX=0.75;exitY=0;exitDx=0;exitDy=0;entryX=0.25;entryY=0;entryDx=0;entryDy=0;fontSize=12;endSize=1;strokeWidth=2;" parent="ayUxG8s4VlRXzF5ZSCcd-134" edge="1">
                    <mxGeometry relative="1" as="geometry">
                        <mxPoint x="269.2516321254874" y="13.85903151421974" as="sourcePoint"/>
                        <mxPoint x="282.83442141699163" y="13.85903151421974" as="targetPoint"/>
                        <Array as="points">
                            <mxPoint x="269.9307715900626"/>
                            <mxPoint x="283.51356088156683"/>
                            <mxPoint x="283.51356088156683" y="14.299000768639518"/>
                        </Array>
                    </mxGeometry>
                </mxCell>
                <mxCell id="ayUxG8s4VlRXzF5ZSCcd-144" style="edgeStyle=orthogonalEdgeStyle;curved=1;orthogonalLoop=1;jettySize=auto;html=1;exitX=0.75;exitY=0;exitDx=0;exitDy=0;entryX=0.25;entryY=0;entryDx=0;entryDy=0;fontSize=12;endSize=1;strokeWidth=2;" parent="ayUxG8s4VlRXzF5ZSCcd-134" edge="1">
                    <mxGeometry relative="1" as="geometry">
                        <mxPoint x="241.40691407790376" y="13.85903151421974" as="sourcePoint"/>
                        <mxPoint x="254.98970336940795" y="13.85903151421974" as="targetPoint"/>
                        <Array as="points">
                            <mxPoint x="242.08605354247896"/>
                            <mxPoint x="255.66884283398318"/>
                            <mxPoint x="255.66884283398318" y="14.299000768639518"/>
                        </Array>
                    </mxGeometry>
                </mxCell>
                <mxCell id="ayUxG8s4VlRXzF5ZSCcd-145" style="edgeStyle=orthogonalEdgeStyle;curved=1;orthogonalLoop=1;jettySize=auto;html=1;exitX=0.75;exitY=0;exitDx=0;exitDy=0;entryX=0.25;entryY=0;entryDx=0;entryDy=0;fontSize=12;endSize=1;strokeWidth=2;" parent="ayUxG8s4VlRXzF5ZSCcd-134" edge="1">
                    <mxGeometry relative="1" as="geometry">
                        <mxPoint x="295.7380712439206" y="13.85903151421974" as="sourcePoint"/>
                        <mxPoint x="309.32086053542486" y="13.85903151421974" as="targetPoint"/>
                        <Array as="points">
                            <mxPoint x="296.4172107084958"/>
                            <mxPoint x="310.00000000000006"/>
                            <mxPoint x="310.00000000000006" y="14.299000768639518"/>
                        </Array>
                    </mxGeometry>
                </mxCell>
                <mxCell id="ayUxG8s4VlRXzF5ZSCcd-146" style="edgeStyle=orthogonalEdgeStyle;curved=1;orthogonalLoop=1;jettySize=auto;html=1;entryX=0.25;entryY=0;entryDx=0;entryDy=0;fontSize=12;endSize=1;strokeWidth=2;" parent="ayUxG8s4VlRXzF5ZSCcd-134" edge="1">
                    <mxGeometry relative="1" as="geometry">
                        <mxPoint x="-0.3667353108712067" y="-0.34097617217519005" as="sourcePoint"/>
                        <mxPoint x="12.903649826929" y="13.870030745580223" as="targetPoint"/>
                        <Array as="points">
                            <mxPoint y="0.010999231360481934"/>
                            <mxPoint x="13.582789291504211" y="0.010999231360481934"/>
                            <mxPoint x="13.582789291504211" y="14.31"/>
                        </Array>
                    </mxGeometry>
                </mxCell>
            </root>
        </mxGraphModel>
    </diagram>
</mxfile>